name rise49.8558peak67.6521fall70.3087.mot
datacolumns 19
datarows 35
range 23.97492300000000 24.03157100000000
endheader
time	ground_force1_vx	ground_force1_vy	ground_force1_vz	ground_force1_px	ground_force1_py	ground_force1_pz	ground_force2_vx	ground_force2_vy	ground_force2_vz	ground_force2_px	ground_force2_py	ground_force2_pz	ground_torque1_x	ground_torque1_y	ground_torque1_z	ground_torque2_x	ground_torque2_y	ground_torque2_z	
23.97492300000000	-52.83171000000000	836.70675400000005	66.74219500000000	0.15439800000000	0.00000000000000	0.12151900000000	0.00000000000000	0.00000000000000	0.00000000000000	0.00000000000000	0.00000000000000	0.00000000000000	0.00000000000000	30.99132000000000	0.00000000000000	0.00000000000000	0.00000000000000	0.00000000000000	
23.97657400000000	-52.94959600000000	836.42182300000002	66.80032000000000	0.15367700000000	0.00000000000000	0.12144300000000	0.00000000000000	0.00000000000000	0.00000000000000	0.00000000000000	0.00000000000000	0.00000000000000	0.00000000000000	30.92396700000000	0.00000000000000	0.00000000000000	0.00000000000000	0.00000000000000	
23.97824500000000	-53.06995000000000	835.98442299999999	66.83686000000000	0.15295300000000	0.00000000000000	0.12136800000000	0.00000000000000	0.00000000000000	0.00000000000000	0.00000000000000	0.00000000000000	0.00000000000000	0.00000000000000	30.85303400000000	0.00000000000000	0.00000000000000	0.00000000000000	0.00000000000000	
23.97992000000000	-53.19342800000000	835.39173300000004	66.85130800000000	0.15222600000000	0.00000000000000	0.12129100000000	0.00000000000000	0.00000000000000	0.00000000000000	0.00000000000000	0.00000000000000	0.00000000000000	0.00000000000000	30.77857100000000	0.00000000000000	0.00000000000000	0.00000000000000	0.00000000000000	
23.98158000000000	-53.32066400000000	834.64110600000004	66.84317299999999	0.15149700000000	0.00000000000000	0.12121400000000	-0.97455300000000	3.69820400000000	1.05340900000000	0.00000000000000	0.00000000000000	0.00000000000000	0.00000000000000	30.70063100000000	0.00000000000000	0.00000000000000	0.42682900000000	0.00000000000000	
23.98324500000000	-53.45226800000000	833.73007900000005	66.81199100000001	0.15076700000000	0.00000000000000	0.12113600000000	-1.54212900000000	7.27219200000000	1.77694000000000	0.00000000000000	0.00000000000000	0.00000000000000	0.00000000000000	30.61926400000000	0.00000000000000	0.00000000000000	0.72780800000000	0.00000000000000	
23.98492800000000	-53.58882100000000	832.65636500000005	66.75731600000000	0.15003600000000	0.00000000000000	0.12105700000000	-2.17961300000000	11.61038700000000	2.61444600000000	0.00000000000000	0.00000000000000	0.00000000000000	0.00000000000000	30.53451800000000	0.00000000000000	0.00000000000000	1.07782500000000	0.00000000000000	
23.98657400000000	-53.73087600000000	831.41786000000002	66.67872699999999	0.14930400000000	0.00000000000000	0.12097600000000	-2.86608200000000	16.67225100000000	3.54617500000000	0.00000000000000	0.00000000000000	0.00000000000000	0.00000000000000	30.44643900000000	0.00000000000000	0.00000000000000	1.46915300000000	0.00000000000000	
23.98824000000000	-53.87895100000000	830.01263400000005	66.57582499999999	0.14857400000000	0.00000000000000	0.12089400000000	-3.57568200000000	22.38414300000000	4.54589700000000	0.00000000000000	0.00000000000000	0.00000000000000	0.00000000000000	30.35507300000000	0.00000000000000	0.00000000000000	1.89137500000000	0.00000000000000	
23.98991200000000	-54.03353200000000	828.43893700000001	66.44823599999999	0.14784400000000	0.00000000000000	0.12081000000000	-4.27928000000000	28.64493100000000	5.58262800000000	0.37163100000000	0.00000000000000	-0.07147900000000	0.00000000000000	30.26046200000000	0.00000000000000	0.00000000000000	4.10087900000000	0.00000000000000	
23.99157300000000	-54.19506600000000	826.69519400000001	66.29561099999999	0.14711700000000	0.00000000000000	0.12072400000000	-4.94651600000000	35.33455600000000	6.62291400000000	0.37647300000000	0.00000000000000	-0.07215700000000	0.00000000000000	30.16264500000000	0.00000000000000	0.00000000000000	4.91421700000000	0.00000000000000	
23.99325200000000	-54.36395900000000	824.78000099999997	66.11762299999999	0.14639200000000	0.00000000000000	0.12063700000000	-5.54802500000000	42.32441600000000	7.63338000000000	0.38090600000000	0.00000000000000	-0.07276900000000	0.00000000000000	30.06166000000000	0.00000000000000	0.00000000000000	5.71888600000000	0.00000000000000	
23.99491700000000	-54.54057600000000	822.69212500000003	65.91397400000000	0.14567100000000	0.00000000000000	0.12054700000000	-6.05750400000000	49.48806700000000	8.58318700000000	0.38499600000000	0.00000000000000	-0.07332800000000	0.00000000000000	29.95754200000000	0.00000000000000	0.00000000000000	6.49153800000000	0.00000000000000	
23.99657800000000	-54.72523900000000	820.43050000000005	65.68439100000001	0.14495300000000	0.00000000000000	0.12045400000000	-6.45337800000000	56.71083300000000	9.44609400000000	0.38879500000000	0.00000000000000	-0.07384000000000	0.00000000000000	29.85032100000000	0.00000000000000	0.00000000000000	7.21183800000000	0.00000000000000	
23.99824500000000	-54.91822200000000	817.99422300000003	65.42862900000000	0.14424100000000	0.00000000000000	0.12036000000000	-6.71989400000000	63.89729000000000	10.20189900000000	0.39234500000000	0.00000000000000	-0.07431300000000	0.00000000000000	29.74002500000000	0.00000000000000	0.00000000000000	7.86365000000000	0.00000000000000	
23.99992300000000	-55.11975000000000	815.38255200000003	65.14646999999999	0.14353400000000	0.00000000000000	0.12026200000000	-6.84760200000000	70.97609500000000	10.83719600000000	0.39567900000000	0.00000000000000	-0.07475300000000	0.00000000000000	29.62667900000000	0.00000000000000	0.00000000000000	8.43571800000000	0.00000000000000	
24.00157800000000	-55.32999800000000	812.59489799999994	64.83772500000001	0.14283300000000	0.00000000000000	0.12016200000000	-6.83325000000000	77.90208199999999	11.34546100000000	0.39882300000000	0.00000000000000	-0.07516400000000	0.00000000000000	29.51030300000000	0.00000000000000	0.00000000000000	8.92184500000000	0.00000000000000	
24.00324100000000	-55.54908800000000	809.63082599999996	64.50223500000000	0.14213900000000	0.00000000000000	0.12005800000000	-6.67919200000000	84.65585000000000	11.72655900000000	0.40179900000000	0.00000000000000	-0.07555000000000	0.00000000000000	29.39091300000000	0.00000000000000	0.00000000000000	9.32063200000000	0.00000000000000	
24.00491000000000	-55.77708800000000	806.49005000000000	64.13987299999999	0.14145200000000	0.00000000000000	0.11995100000000	-6.39243900000000	91.24130200000000	11.98580900000000	0.40462400000000	0.00000000000000	-0.07591400000000	0.00000000000000	29.26852300000000	0.00000000000000	0.00000000000000	9.63486900000000	0.00000000000000	
24.00658000000000	-56.01400900000000	803.17242299999998	63.75054000000000	0.14077400000000	0.00000000000000	0.11984100000000	-5.98349500000000	97.68168300000001	12.13277100000000	0.40731500000000	0.00000000000000	-0.07626000000000	0.00000000000000	29.14313900000000	0.00000000000000	0.00000000000000	9.87067300000000	0.00000000000000	
24.00824100000000	-56.25980300000000	799.67793900000004	63.33417500000000	0.14010500000000	0.00000000000000	0.11972800000000	-5.46510600000000	104.01472000000000	12.17988300000000	0.40988200000000	0.00000000000000	-0.07658800000000	0.00000000000000	29.01476400000000	0.00000000000000	0.00000000000000	10.03651500000000	0.00000000000000	
24.00991200000000	-56.51436400000000	796.00672399999996	62.89074400000000	0.13944500000000	0.00000000000000	0.11961000000000	-4.85105000000000	110.28740200000000	12.14110500000000	0.41233700000000	0.00000000000000	-0.07690200000000	0.00000000000000	28.88339500000000	0.00000000000000	0.00000000000000	10.14220800000000	0.00000000000000	
24.01157300000000	-56.77752200000000	792.15903200000002	62.42025400000000	0.13879500000000	0.00000000000000	0.11948900000000	-4.15504600000000	116.55091400000001	12.03067800000000	0.41468800000000	0.00000000000000	-0.07720200000000	0.00000000000000	28.74902700000000	0.00000000000000	0.00000000000000	10.19796600000000	0.00000000000000	
24.01324000000000	-57.04904700000000	788.13524299999995	61.92274200000000	0.13815500000000	0.00000000000000	0.11936400000000	-3.38985900000000	122.85608000000001	11.86206300000000	0.41694200000000	0.00000000000000	-0.07749100000000	0.00000000000000	28.61164400000000	0.00000000000000	0.00000000000000	10.21358300000000	0.00000000000000	
24.01491600000000	-57.32864200000000	783.93585199999995	61.39828500000000	0.13752700000000	0.00000000000000	0.11923400000000	-2.56663900000000	129.24959600000000	11.64712900000000	0.41910600000000	0.00000000000000	-0.07776900000000	0.00000000000000	28.47122800000000	0.00000000000000	0.00000000000000	10.19779000000000	0.00000000000000	
24.01657400000000	-57.61594600000000	779.56146899999999	60.84699700000000	0.13691000000000	0.00000000000000	0.11910000000000	-1.69449100000000	135.77119999999999	11.39559900000000	0.42118400000000	0.00000000000000	-0.07803800000000	0.00000000000000	28.32775400000000	0.00000000000000	0.00000000000000	10.15780100000000	0.00000000000000	
24.01824200000000	-57.91052900000000	775.01281100000006	60.26903000000000	0.13630500000000	0.00000000000000	0.11896200000000	-0.78028500000000	142.45184000000000	11.11476100000000	0.42318100000000	0.00000000000000	-0.07829900000000	0.00000000000000	28.18119100000000	0.00000000000000	0.00000000000000	10.09904900000000	0.00000000000000	
24.01990900000000	-58.21189700000000	770.29069900000002	59.66457600000000	0.13571300000000	0.00000000000000	0.11881900000000	0.17133300000000	149.31278100000000	10.80940300000000	0.42510200000000	0.00000000000000	-0.07855100000000	0.00000000000000	28.03150100000000	0.00000000000000	0.00000000000000	10.02510700000000	0.00000000000000	
24.02157200000000	-58.51948300000000	765.39605200000005	59.03386600000000	0.13513300000000	0.00000000000000	0.11867200000000	1.15776400000000	156.36557199999999	10.48195500000000	0.42695000000000	0.00000000000000	-0.07879700000000	0.00000000000000	27.87864000000000	0.00000000000000	0.00000000000000	9.93776500000000	0.00000000000000	
24.02323800000000	-58.83265500000000	760.32988200000000	58.37717500000000	0.13456700000000	0.00000000000000	0.11852000000000	2.17815300000000	163.61269400000000	10.13277800000000	0.42872600000000	0.00000000000000	-0.07903700000000	0.00000000000000	27.72255800000000	0.00000000000000	0.00000000000000	9.83721800000000	0.00000000000000	
24.02492000000000	-59.15071000000000	755.09329400000001	57.69481700000000	0.13401400000000	0.00000000000000	0.11836300000000	3.23301100000000	171.04873200000000	9.76055500000000	0.43043500000000	0.00000000000000	-0.07927100000000	0.00000000000000	27.56319500000000	0.00000000000000	0.00000000000000	9.72235300000000	0.00000000000000	
24.02657400000000	-59.47287400000000	749.68747599999995	56.98715300000000	0.13347500000000	0.00000000000000	0.11820000000000	4.32380000000000	178.66188000000000	9.36273500000000	0.43207800000000	0.00000000000000	-0.07949900000000	0.00000000000000	27.40048900000000	0.00000000000000	0.00000000000000	9.59107400000000	0.00000000000000	
24.02824600000000	-59.79830700000000	744.11370199999999	56.25458300000000	0.13295100000000	0.00000000000000	0.11803300000000	5.45251700000000	186.43560600000001	8.93599200000000	0.43365700000000	0.00000000000000	-0.07972300000000	0.00000000000000	27.23436800000000	0.00000000000000	0.00000000000000	9.44064700000000	0.00000000000000	
24.02991300000000	-60.12609900000000	738.37332800000001	55.49755500000000	0.13244000000000	0.00000000000000	0.11786100000000	6.62131800000000	194.35032600000000	8.47665400000000	0.43517300000000	0.00000000000000	-0.07994300000000	0.00000000000000	27.06475400000000	0.00000000000000	0.00000000000000	9.26803000000000	0.00000000000000	
24.03157100000000	-60.45527100000000	732.46779000000004	54.71655800000000	0.13194400000000	0.00000000000000	0.11768300000000	7.83218900000000	202.38496000000001	7.98108600000000	0.43662900000000	0.00000000000000	-0.08015800000000	0.00000000000000	26.89156300000000	0.00000000000000	0.00000000000000	9.07016900000000	0.00000000000000	
